<svg width="29" height="29" viewBox="0 0 29 29" fill="none" xmlns="http://www.w3.org/2000/svg">
<path fill-rule="evenodd" clip-rule="evenodd" d="M14.5 29C22.5081 29 29 22.5081 29 14.5C29 6.49187 22.5081 0 14.5 0C6.49187 0 0 6.49187 0 14.5C0 22.5081 6.49187 29 14.5 29ZM12.7869 15.2379V22.2764H15.3596V15.2379H17.8851L18 12.7038H15.3596V10.8533C15.3596 10.1546 15.5002 9.73365 16.3772 9.73365C17.1876 9.73365 17.9303 9.74118 17.9303 9.74118L17.9877 7.37469C17.9877 7.37469 17.2595 7.27637 16.2747 7.27637C13.8425 7.27637 12.7869 8.83835 12.7869 10.5392V12.7038H11V15.2379H12.7869Z" fill="white"/>
</svg>
