<svg width="29" height="29" viewBox="0 0 29 29" fill="none" xmlns="http://www.w3.org/2000/svg">
<path fill-rule="evenodd" clip-rule="evenodd" d="M14.5 29C22.5081 29 29 22.5081 29 14.5C29 6.49187 22.5081 0 14.5 0C6.49187 0 0 6.49187 0 14.5C0 22.5081 6.49187 29 14.5 29ZM12.5034 14.5673C12.5034 13.5897 13.3012 12.7919 14.2788 12.7919C15.2564 12.7919 16.0542 13.5897 16.0542 14.5673C16.0542 15.545 15.2564 16.3428 14.2788 16.3428C13.3012 16.3428 12.5034 15.545 12.5034 14.5673ZM19.604 14.2984C19.6039 14.3879 19.6038 14.4776 19.6038 14.5673C19.6038 14.6677 19.604 14.7679 19.6041 14.8681C19.6051 15.5016 19.606 16.1313 19.5692 16.765C19.5279 17.6175 19.3348 18.3727 18.7101 18.9974C18.0868 19.6207 17.3302 19.8152 16.4778 19.8565C15.8335 19.8927 15.1933 19.892 14.549 19.8913C14.4595 19.8912 14.3699 19.8911 14.2801 19.8911C14.1906 19.8911 14.1011 19.8912 14.0117 19.8913C13.3684 19.892 12.728 19.8927 12.0825 19.8565C11.23 19.8152 10.4748 19.6221 9.85017 18.9974C9.22683 18.374 9.03237 17.6175 8.99108 16.765C8.95483 16.1207 8.95554 15.4794 8.95625 14.8358C8.95635 14.7464 8.95645 14.6569 8.95645 14.5673C8.95645 14.4778 8.95635 14.3883 8.95625 14.2989C8.95554 13.6555 8.95483 13.0151 8.99108 12.3696C9.03237 11.5172 9.2255 10.762 9.85017 10.1373C10.4735 9.51394 11.23 9.31948 12.0825 9.27819C12.7268 9.24194 13.367 9.24265 14.0112 9.24336C14.1008 9.24346 14.1904 9.24356 14.2801 9.24356C14.3697 9.24356 14.4592 9.24346 14.5486 9.24336C15.1919 9.24265 15.8323 9.24194 16.4778 9.27819C17.3302 9.31948 18.0854 9.51261 18.7101 10.1373C19.3334 10.7606 19.5279 11.5172 19.5692 12.3696C19.6054 13.0139 19.6047 13.6542 19.604 14.2984ZM11.547 14.5673C11.547 16.0791 12.7671 17.2992 14.2788 17.2992C15.7905 17.2992 17.0106 16.0791 17.0106 14.5673C17.0106 13.0556 15.7905 11.8355 14.2788 11.8355C12.7671 11.8355 11.547 13.0556 11.547 14.5673ZM16.4845 11.7236C16.4845 12.0766 16.7695 12.3616 17.1224 12.3616C17.2063 12.3617 17.2893 12.3453 17.3667 12.3133C17.4442 12.2813 17.5145 12.2343 17.5738 12.175C17.6331 12.1157 17.6801 12.0454 17.7121 11.9679C17.7441 11.8905 17.7605 11.8075 17.7604 11.7236C17.7604 11.3707 17.4754 11.0856 17.1224 11.0856C16.7695 11.0856 16.4845 11.3707 16.4845 11.7236Z" fill="white"/>
</svg>
