<svg id="Layer_1" data-name="Layer 1" xmlns="http://www.w3.org/2000/svg" viewBox="0 0 283.46 208.9"><defs><style>.cls-1{fill:#6667aa;}.cls-2{fill:#333;}</style></defs><title>florex-all-logo-versions</title><path class="cls-1" d="M200.48,47.1C200.19,69.62,184.25,89.4,162,93.68a47.64,47.64,0,0,1-34.33-6.57c-8.52-5.43-14-13.09-18.6-21.86-.67-1.27-2.59-.14-1.92,1.12,5,9.52,11.09,17.7,20.48,23.33a50,50,0,0,0,35,6.12c23.27-4.46,39.86-25.27,40.16-48.73a1.11,1.11,0,0,0-2.23,0Z"/><path class="cls-1" d="M131.15,89.49c-4.76,2.75-11.25,2.93-16.53,2.42-6.49-.64-12.34-2.92-18.25-5.53a9.44,9.44,0,0,0-8.29-.17c-1.35.67-5.6,3.51-4.82,5.59.62,1.66,2.6.63,3.66.11,4.49-2.15,8.3-5.51,12.73-7.74,9.57-4.82,20.5,1.44,28.24,7C129,92,130.16,90,129,89.22c-7.64-5.46-17.81-11.16-27.54-8.17-5.19,1.6-9.58,5.56-14.25,8.17a12.43,12.43,0,0,0-2.29,1.17q-1.09.19.66.91a11.88,11.88,0,0,1,1.67-1.86c2.64-2.24,5.21-2.28,8.11-1.08,6.13,2.55,12,5,18.68,5.71,5.86.64,13,.38,18.23-2.66a1.11,1.11,0,0,0-1.12-1.92Z"/><path class="cls-1" d="M146,95.82c12.79-3.12,19.83-17.06,24.56-27.88a7.36,7.36,0,0,1,3-3.69c1.47-.87,2.9-.67,4.48-1,.28-.05,1.34.3,1.57.17.76-.44-.07-1-.34-1-1-.14-3.11.88-4.16,1.12-1.8.41-3.6.76-5.41,1.11-3.65.71-7.24,1.32-10.41,3.41-7.85,5.17-10.85,15.22-12.49,23.94-.26,1.4,1.88,2,2.15.59,1.65-8.78,4.79-19.89,13.78-23.89,4.47-2,9.77-2.19,14.46-3.37,1.17-.3,4.68-.75,4.58-2.6-.13-2.34-5.19-1.72-6.37-1.49a9.23,9.23,0,0,0-6.74,5.46c-2.22,4.81-4,9.58-7,14-3.77,5.37-9.54,11.39-16.21,13-1.39.34-.8,2.49.59,2.15Z"/><path class="cls-1" d="M109.85,66c-3.79-5.34-9.86-9.76-16.39-10.76a26.31,26.31,0,0,0-10.86.91,33.24,33.24,0,0,0-6.07,2.93c-2.21,1.14-5,.7-7.07,1.94a1.14,1.14,0,0,0-.51,1.26c.54,1.89,4.34,3,5.92,4.1a14.56,14.56,0,0,0,11.6,2.65c7.27-1.58,14.85-5.59,21.86-1.5a1.11,1.11,0,0,0,1.12-1.92c-6.08-3.55-11.91-1.81-18.44-.14-2.94.75-5.73,1.89-8.82,1.55-3.94-.44-6.36-3.2-9.8-4.73-1.47-.65-.17.22.66.23a9.6,9.6,0,0,0,3-.75,21.4,21.4,0,0,0,3.53-2,23,23,0,0,1,11.87-2.51c6.47.32,12.78,4.66,16.48,9.87C108.75,68.32,110.68,67.21,109.85,66Z"/><path class="cls-1" d="M109.85,67.16c2.46-3.62,6.22-7,10.44-8.36,5.68-1.81,11.29-2.35,15.57-7.05,2.26-2.48,3.54-6.21,1.3-9.18s-6.64-2.23-9.79-1.73a29.11,29.11,0,0,0-13.89,5.77c-6.38,5.19-7.44,12.63-5.67,20.28.32,1.4,2.47.81,2.15-.59-1.66-7.21-.5-14.06,5.76-18.61a27,27,0,0,1,10.72-4.43c3.28-.64,10.88-1.9,9.56,4.06-1.22,5.54-9.46,7.84-14,8.82a23,23,0,0,0-14,9.89C107.12,67.22,109,68.34,109.85,67.16Z"/><path class="cls-1" d="M123.19,43.92c0,1.43,1.63,2.08,2.77,2.35a11.31,11.31,0,0,0,4.1.13c1.51-.19,4.64-1.46,5.54.31.65,1.28,2.57.15,1.92-1.12-1-1.92-2.8-2.1-4.76-1.86a34.09,34.09,0,0,1-4.35.59A7.54,7.54,0,0,1,126,44c-.54-.19-.6-.49-.59-.06a1.11,1.11,0,0,0-2.23,0Z"/><path class="cls-1" d="M107.33,62.06A158.8,158.8,0,0,0,96.07,50.53a41.46,41.46,0,0,0-7.28-5.69c-1.68-1-3.51-1.5-5-2.79a50.18,50.18,0,0,1-3.64-4.15c-2.89-3.07-3.68.64-3.58,3.39.26,7.11,5.78,12.15,11.59,15.4,1.25.7,2.38-1.22,1.12-1.92-6.19-3.46-10-7.76-10.46-14.83,0-.58.31-1.12.3-1.67,0,.41-1,0-.91.73a8.85,8.85,0,0,0,1.22,1.58,18.2,18.2,0,0,0,6,5.17c8.08,4.07,14.4,11.16,20.38,17.87,1,1.07,2.53-.51,1.58-1.58Z"/><path class="cls-1" d="M122.94,43.7a17.34,17.34,0,0,0,4.83-14.26c-.2-1.32-.48-2.85-1.84-3.48-2.2-1-3.06,1.14-4.55,2s-3.27,1.09-4.74,2.08a17.63,17.63,0,0,0-5.87,6.86c-3.7,7.35-6.74,16.86-3.95,25,.46,1.35,2.62.77,2.15-.59-2.11-6.13-.46-12.67,1.74-18.55,2-5.27,4.51-10.11,10-12.26,3.15-1.24,5.19-4.36,5,1.58a15.58,15.58,0,0,1-4.36,10c-1,1,.57,2.6,1.58,1.58Z"/><path class="cls-1" d="M115.44,32.36c-1-2.24-1.62-8.38-4.45-9.37-3.46-1.22-6,4.93-7.21,7.24-6.08,11.21-4.37,22.24,3.15,32.38.84,1.14,2.78,0,1.92-1.12-6.2-8.37-8.91-17.81-4.43-27.59.74-1.63,3.85-8.52,5.58-8.11s2.71,5.8,3.52,7.7c.56,1.31,2.48.18,1.92-1.12Z"/><path class="cls-1" d="M103.61,34.08c-2.11-3.33-5.26-4.48-8.06-7-1.15-1-2.65-2.52-4.25-1.41-2.63,1.82-.79,8.36-.49,10.95a40.69,40.69,0,0,0,5.92,17c.75,1.22,2.68.1,1.92-1.12a37.06,37.06,0,0,1-5.13-12.66c-.25-1.3-2.28-11.09-1-12,.71-.51,1.39.83,1.93,1.33,2.41,2.21,5.4,3,7.27,6,.77,1.21,2.69.09,1.92-1.12Z"/><path class="cls-1" d="M77.25,42.85c2.15,1.92,4.49,3.73,6.45,5.84,2.33,2.51,4.45,5.24,6.66,7.85.93,1.09,2.5-.49,1.58-1.58-2.21-2.61-4.32-5.36-6.66-7.85-2-2.1-4.3-3.92-6.45-5.84-1.07-1-2.65.62-1.58,1.58Z"/><path class="cls-2" d="M44.56,133v5.72H26.43v16.95H20.37V116.38H45.91v5.72H26.43V133Z"/><path class="cls-2" d="M60.67,155.66V116.38h6.06v33.56H85.64v5.72Z"/><path class="cls-2" d="M135,136a20,20,0,1,1-20-20A20,20,0,0,1,135,136Zm-34,0c0,8.36,6.12,14.31,13.92,14.31s14-5.95,14-14.31-6.17-14.31-14-14.31S101.08,127.72,101.08,136Z"/><path class="cls-2" d="M162.87,116.38c10.49,0,16.95,5.95,16.95,14.48,0,6.23-3.59,10.55-9.26,12.51,2,1,3.76,2.92,6.17,6.68l3.65,5.61h-6.79l-2.92-4.49c-3.14-4.88-4.55-5.72-8.59-5.84h-6.17v10.33h-6.06V116.38Zm-7,23.29h7.46c5.89,0,10.72-2.64,10.72-8.81,0-5.95-4.83-8.76-10.72-8.76h-7.46Z"/><path class="cls-2" d="M218.83,133v5.72H200.7v11.22h19.47v5.72H194.64V116.38h25.53v5.72H200.7V133Z"/><path class="cls-2" d="M238.25,155.66h-7l13.92-20.37-13.13-18.91h7L248.74,130l9.48-13.64h7l-13.13,19.19L266,155.66h-7l-10.44-14.82Z"/><path class="cls-1" d="M75.49,182.36l6.9-8.67H75.6v-2h9.48v2l-6.94,8.64h7v2H75.49Z"/><path class="cls-1" d="M90.8,171.72h2.26V184.4H90.8Z"/><path class="cls-1" d="M99.44,171.72h8.41v2h-6.15v3.23h5.82v1.9h-5.82v3.58h6.47v2H99.44Z"/><path class="cls-1" d="M114,171.72h4.5a10,10,0,0,1,2.49.32,6.47,6.47,0,0,1,2.26,1.07,5.58,5.58,0,0,1,1.63,2,6.48,6.48,0,0,1,.63,3,6.12,6.12,0,0,1-.63,2.87,5.87,5.87,0,0,1-1.63,2,6.82,6.82,0,0,1-2.26,1.14,8.83,8.83,0,0,1-2.49.37H114Zm4.14,10.72a7.68,7.68,0,0,0,1.76-.21,4.57,4.57,0,0,0,1.59-.7,3.71,3.71,0,0,0,1.16-1.33,4.51,4.51,0,0,0,.45-2.13,4.8,4.8,0,0,0-.45-2.22,3.61,3.61,0,0,0-1.16-1.34,4.31,4.31,0,0,0-1.59-.66,8.8,8.8,0,0,0-1.76-.18h-1.88v8.78Z"/><path class="cls-1" d="M141.33,179.74a5.21,5.21,0,0,1-.39,2.07,4.61,4.61,0,0,1-1.08,1.57,4.73,4.73,0,0,1-1.61,1,6,6,0,0,1-4.05,0,4.81,4.81,0,0,1-1.62-1,4.46,4.46,0,0,1-1.08-1.57,5.32,5.32,0,0,1-.39-2.07v-8h2.26v7.94a4.3,4.3,0,0,0,.14,1.1,2.67,2.67,0,0,0,.47,1,2.44,2.44,0,0,0,.88.7,3.54,3.54,0,0,0,2.71,0,2.45,2.45,0,0,0,.88-.7,2.7,2.7,0,0,0,.47-1,4.3,4.3,0,0,0,.14-1.1v-7.94h2.26Z"/><path class="cls-1" d="M155.67,171.72h4.95a6,6,0,0,1,1.42.17,3.63,3.63,0,0,1,1.25.56,2.87,2.87,0,0,1,1.23,2.46,2.61,2.61,0,0,1-.61,1.77,3.39,3.39,0,0,1-1.6,1v0a3.33,3.33,0,0,1,2,.93,2.79,2.79,0,0,1,.77,2.06,3.42,3.42,0,0,1-.41,1.75,3.3,3.3,0,0,1-1.08,1.14,4.65,4.65,0,0,1-1.54.62,8.34,8.34,0,0,1-1.77.19h-4.57Zm2.26,5.16h2a2.81,2.81,0,0,0,1.72-.45,1.5,1.5,0,0,0,.59-1.27,1.3,1.3,0,0,0-.61-1.22,3.88,3.88,0,0,0-1.9-.36h-1.81Zm0,5.63h2a7.54,7.54,0,0,0,.93-.06,3.06,3.06,0,0,0,.92-.26,1.82,1.82,0,0,0,.7-.57,1.66,1.66,0,0,0,.28-1,1.48,1.48,0,0,0-.68-1.4,4.23,4.23,0,0,0-2.06-.39h-2.11Z"/><path class="cls-1" d="M174.83,171.72h2l5.47,12.69h-2.58l-1.18-2.9H173l-1.15,2.9h-2.53Zm3.85-1.56h-5.74v-1.4h5.74Zm-1,9.41-2-5.16-2,5.16Z"/><path class="cls-1" d="M186.32,182.36l6.9-8.67h-6.79v-2h9.48v2L189,182.4h7v2h-9.69Z"/><path class="cls-1" d="M201.62,171.72H210v2h-6.15v3.23h5.82v1.9h-5.82v3.58h6.47v2h-8.73Z"/></svg>